<svg width="256" height="256" viewBox="0 0 256 256" fill="none" xmlns="http://www.w3.org/2000/svg">
  <rect width="256" height="256" rx="56" fill="#090D14"/>
  <path d="M37 82C37 68.75 47.75 58 61 58H96.2C103.65 58 110.68 61.46 115.22 67.37L123 77.5H195C208.25 77.5 219 88.25 219 101.5V178C219 191.25 208.25 202 195 202H61C47.75 202 37 191.25 37 178V82Z" fill="#14B8A6"/>
  <path d="M55 103C55 94.72 61.72 88 70 88H186C194.28 88 201 94.72 201 103V172C201 180.28 194.28 187 186 187H70C61.72 187 55 180.28 55 172V103Z" fill="#101827" fill-opacity="0.24"/>
  <path d="M82 130H174" stroke="#F8FAFC" stroke-width="14" stroke-linecap="round"/>
  <path d="M128 84V176" stroke="#F8FAFC" stroke-width="14" stroke-linecap="round"/>
  <path d="M187 51L191.43 62.57L203 67L191.43 71.43L187 83L182.57 71.43L171 67L182.57 62.57L187 51Z" fill="#FFB84D"/>
</svg>
